<svg xmlns="http://www.w3.org/2000/svg" width="240" height="58" viewBox="0 0 240 58" fill="none">
  <defs>
    <linearGradient id="brand" x1="2" y1="2" x2="219" y2="54" gradientUnits="userSpaceOnUse">
      <stop stop-color="#3284F6"/>
      <stop offset="1" stop-color="#7657E8"/>
    </linearGradient>
  </defs>
  <path d="M43 12C38 6.5 31 3.5 23.5 3.5C12 3.5 3 12.5 3 24C3 36 12 45 24 45C32 45 39 41.5 43.5 35.5" stroke="url(#brand)" stroke-width="4.5" stroke-linecap="round"/>
  <path d="M11 41L6.5 53L19 46" stroke="url(#brand)" stroke-width="4.5" stroke-linecap="round" stroke-linejoin="round"/>
  <path d="M16 17H34M16 25H34M16 33H34" stroke="#4E66D8" stroke-width="2.2" stroke-linecap="round" opacity="0.55"/>
  <circle cx="22" cy="17" r="3.4" fill="white" stroke="url(#brand)" stroke-width="2"/>
  <circle cx="30" cy="25" r="3.4" fill="white" stroke="url(#brand)" stroke-width="2"/>
  <circle cx="20" cy="33" r="3.4" fill="white" stroke="url(#brand)" stroke-width="2"/>
  <text x="57" y="38" font-family="-apple-system, BlinkMacSystemFont, 'Segoe UI', Arial, sans-serif" font-size="31" font-weight="680" letter-spacing="-1.2" fill="#182033">Chat</text>
  <text x="122" y="38" font-family="-apple-system, BlinkMacSystemFont, 'Segoe UI', Arial, sans-serif" font-size="31" font-weight="680" letter-spacing="-1.2" fill="url(#brand)">Tune</text>
</svg>
